<?xml version="1.0" encoding="UTF-8"?>
<svg xmlns="http://www.w3.org/2000/svg" width="24" height="24" viewBox="0 0 24 24" fill="none" stroke="currentColor" stroke-width="2" stroke-linecap="round" stroke-linejoin="round">
  <path d="M9.5 9.5c-.3-.9-1.5-1.6-2.4-1.6-1.5 0-2.6 1.1-2.6 2.6 0 1.5 1.1 2.6 2.6 2.6.9 0 2.1-.7 2.4-1.6"></path>
  <path d="M14.5 9.5c.3-.9 1.5-1.6 2.4-1.6 1.5 0 2.6 1.1 2.6 2.6 0 1.5-1.1 2.6-2.6 2.6-.9 0-2.1-.7-2.4-1.6"></path>
  <path d="M18.5 14.5c3.3 1 4.5 3.8 4.5 5.5 0 1-1 1-1 1H2c0 0-1 0-1-1 0-1.7 1.2-4.5 4.5-5.5"></path>
  <path d="M9 14.5c0 0 1 .5 3 .5 2 0 3-.5 3-.5"></path>
  <path d="M9 3c-4.5 0-8 3.5-8 8"></path>
  <path d="M15 3c4.5 0 8 3.5 8 8"></path>
</svg>
