<?xml version="1.0" encoding="UTF-8"?>
<svg width="24" height="24" viewBox="0 0 24 24" fill="none" xmlns="http://www.w3.org/2000/svg">
  <path d="M23.498 6.186C23.2393 5.2738 22.5064 4.5409 21.594 4.282C19.8 3.8 12 3.8 12 3.8C12 3.8 4.2 3.8 2.406 4.282C1.4936 4.5409 0.760698 5.2738 0.502 6.186C0.02 7.98 0.02 11.6 0.02 11.6C0.02 11.6 0.02 15.22 0.502 17.014C0.760698 17.9262 1.4936 18.6591 2.406 18.918C4.2 19.4 12 19.4 12 19.4C12 19.4 19.8 19.4 21.594 18.918C22.5064 18.6591 23.2393 17.9262 23.498 17.014C23.98 15.22 23.98 11.6 23.98 11.6C23.98 11.6 23.98 7.98 23.498 6.186ZM9.6 15.04V8.16L15.8 11.6L9.6 15.04Z" fill="#1A1A2E"/>
</svg> 