<?xml version="1.0" encoding="UTF-8"?>
<svg width="800" height="600" viewBox="0 0 800 600" xmlns="http://www.w3.org/2000/svg">
  <!-- 背景 -->
  <defs>
    <linearGradient id="bgGradient" x1="0%" y1="0%" x2="100%" y2="100%">
      <stop offset="0%" stop-color="#f0f4ff" />
      <stop offset="100%" stop-color="#e0e8ff" />
    </linearGradient>
    <linearGradient id="modelGradient" x1="0%" y1="0%" x2="100%" y2="100%">
      <stop offset="0%" stop-color="#4a6cf7" />
      <stop offset="100%" stop-color="#2541b2" />
    </linearGradient>
    <linearGradient id="dataGradient" x1="0%" y1="0%" x2="100%" y2="100%">
      <stop offset="0%" stop-color="#f76c6c" />
      <stop offset="100%" stop-color="#e83e3e" />
    </linearGradient>
    <linearGradient id="finetuneGradient" x1="0%" y1="0%" x2="100%" y2="100%">
      <stop offset="0%" stop-color="#6cf7b1" />
      <stop offset="100%" stop-color="#3ee896" />
    </linearGradient>
    <filter id="shadow" x="-20%" y="-20%" width="140%" height="140%">
      <feDropShadow dx="0" dy="4" stdDeviation="10" flood-opacity="0.2"/>
    </filter>
  </defs>
  
  <!-- 背景矩形 -->
  <rect width="800" height="600" fill="url(#bgGradient)" rx="20" ry="20" />
  
  <!-- 中心圆形 -->
  <circle cx="400" cy="300" r="220" fill="white" filter="url(#shadow)" />
  
  <!-- 大模型表示 - 左侧 -->
  <g transform="translate(200, 300)">
    <!-- 模型主体 -->
    <rect x="-80" y="-100" width="160" height="200" rx="15" ry="15" fill="url(#modelGradient)" />
    
    <!-- 模型内部结构 - 层 -->
    <rect x="-60" y="-80" width="120" height="25" rx="5" ry="5" fill="white" opacity="0.3" />
    <rect x="-60" y="-45" width="120" height="25" rx="5" ry="5" fill="white" opacity="0.3" />
    <rect x="-60" y="-10" width="120" height="25" rx="5" ry="5" fill="white" opacity="0.3" />
    <rect x="-60" y="25" width="120" height="25" rx="5" ry="5" fill="white" opacity="0.3" />
    <rect x="-60" y="60" width="120" height="25" rx="5" ry="5" fill="white" opacity="0.3" />
    
    <!-- DeepSeek 标签 -->
    <text x="0" y="130" font-family="Arial, sans-serif" font-size="20" font-weight="bold" text-anchor="middle" fill="#2541b2">DeepSeek-R1</text>
  </g>
  
  <!-- 微调数据 - 右上 -->
  <g transform="translate(550, 200)">
    <!-- 数据集图标 -->
    <rect x="-70" y="-70" width="140" height="140" rx="15" ry="15" fill="url(#dataGradient)" />
    
    <!-- 数据文档图标 -->
    <rect x="-40" y="-40" width="80" height="15" rx="2" ry="2" fill="white" opacity="0.5" />
    <rect x="-40" y="-20" width="80" height="15" rx="2" ry="2" fill="white" opacity="0.5" />
    <rect x="-40" y="0" width="80" height="15" rx="2" ry="2" fill="white" opacity="0.5" />
    <rect x="-40" y="20" width="80" height="15" rx="2" ry="2" fill="white" opacity="0.5" />
    
    <!-- 数据标签 -->
    <text x="0" y="90" font-family="Arial, sans-serif" font-size="18" font-weight="bold" text-anchor="middle" fill="#e83e3e">领域数据</text>
  </g>
  
  <!-- 微调后的模型 - 右下 -->
  <g transform="translate(550, 400)">
    <!-- 微调模型图标 -->
    <rect x="-70" y="-70" width="140" height="140" rx="15" ry="15" fill="url(#finetuneGradient)" />
    
    <!-- 微调模型内部结构 -->
    <rect x="-40" y="-40" width="80" height="15" rx="2" ry="2" fill="white" opacity="0.5" />
    <rect x="-40" y="-20" width="80" height="15" rx="2" ry="2" fill="white" opacity="0.5" />
    <rect x="-40" y="0" width="80" height="15" rx="2" ry="2" fill="white" opacity="0.5" />
    <rect x="-40" y="20" width="80" height="15" rx="2" ry="2" fill="white" opacity="0.5" />
    
    <!-- 专业化图标 - 星形 -->
    <path d="M0,-15 L3,-5 L14,-5 L5,2 L9,12 L0,6 L-9,12 L-5,2 L-14,-5 L-3,-5 Z" fill="white" />
    
    <!-- 微调标签 -->
    <text x="0" y="90" font-family="Arial, sans-serif" font-size="18" font-weight="bold" text-anchor="middle" fill="#3ee896">专业模型</text>
  </g>
  
  <!-- 连接线和箭头 -->
  <!-- 从基础模型到微调模型的连接 -->
  <path d="M280,300 C380,300 420,400 480,400" stroke="#888" stroke-width="3" fill="none" stroke-dasharray="10,5" />
  <polygon points="480,400 470,395 470,405" fill="#888" />
  
  <!-- 从数据到微调模型的连接 -->
  <path d="M550,270 C550,320 550,350 550,330" stroke="#888" stroke-width="3" fill="none" stroke-dasharray="10,5" />
  <polygon points="550,330 545,320 555,320" fill="#888" />
  
  <!-- 中心标题 -->
  <text x="400" y="100" font-family="Arial, sans-serif" font-size="36" font-weight="bold" text-anchor="middle" fill="#2541b2">DeepSeek 模型微调</text>
  
  <!-- 底部说明 -->
  <text x="400" y="520" font-family="Arial, sans-serif" font-size="20" font-weight="bold" text-anchor="middle" fill="#555">定制你的行业专属AI助手</text>
</svg> 