<svg xmlns="http://www.w3.org/2000/svg" viewBox="0 0 200 200" width="200" height="200">
  <defs>
    <linearGradient id="gradient" x1="0%" y1="0%" x2="100%" y2="100%">
      <stop offset="0%" stop-color="#0066ff" />
      <stop offset="100%" stop-color="#4d4dff" />
    </linearGradient>
  </defs>
  <rect width="200" height="200" rx="20" fill="#f0f0f0" />
  <g transform="translate(40, 40)">
    <!-- 灯泡图标 -->
    <path d="M60 20 C40 20 25 35 25 55 C25 70 35 80 40 85 C45 90 45 95 45 100 L75 100 C75 95 75 90 80 85 C85 80 95 70 95 55 C95 35 80 20 60 20 Z" fill="url(#gradient)" />
    <!-- 灯泡底座 -->
    <rect x="45" y="100" width="30" height="10" rx="2" fill="url(#gradient)" />
    <!-- 光线 -->
    <path d="M60 10 L60 0 M90 20 L100 10 M100 55 L110 55 M90 90 L100 100 M30 90 L20 100 M20 55 L10 55 M30 20 L20 10" stroke="url(#gradient)" stroke-width="3" stroke-linecap="round" />
    <!-- 灯丝 -->
    <path d="M50 60 L70 60 M50 70 L70 70 M50 80 L70 80" stroke="white" stroke-width="2" stroke-linecap="round" />
  </g>
</svg> 