<?xml version="1.0" encoding="UTF-8"?>
<svg xmlns="http://www.w3.org/2000/svg" width="80" height="80" viewBox="0 0 80 80" fill="none">
  <!-- 背景 -->
  <rect width="80" height="80" rx="20" fill="#F5F7FF" />
  
  <!-- 文档图标 -->
  <g transform="translate(40, 40)">
    <!-- 文档背景 -->
    <rect x="-25" y="-30" width="50" height="60" rx="5" fill="white" stroke="#4A6CF7" stroke-width="2" />
    
    <!-- 文档内容 - 文本行 -->
    <rect x="-20" y="-25" width="40" height="3" rx="1.5" fill="#4A6CF7" />
    <rect x="-20" y="-20" width="30" height="3" rx="1.5" fill="#4A6CF7" opacity="0.8" />
    <rect x="-20" y="-15" width="35" height="3" rx="1.5" fill="#4A6CF7" opacity="0.6" />
    <rect x="-20" y="-10" width="25" height="3" rx="1.5" fill="#4A6CF7" opacity="0.8" />
    <rect x="-20" y="-5" width="40" height="3" rx="1.5" fill="#4A6CF7" />
    
    <rect x="-20" y="5" width="35" height="3" rx="1.5" fill="#4A6CF7" opacity="0.6" />
    <rect x="-20" y="10" width="30" height="3" rx="1.5" fill="#4A6CF7" opacity="0.8" />
    <rect x="-20" y="15" width="40" height="3" rx="1.5" fill="#4A6CF7" />
    <rect x="-20" y="20" width="25" height="3" rx="1.5" fill="#4A6CF7" opacity="0.6" />
    
    <!-- 光标 -->
    <rect x="-20" y="0" width="2" height="3" rx="1" fill="#FF6B6B">
      <animate attributeName="opacity" values="1;0;1" dur="1.5s" repeatCount="indefinite" />
    </rect>
  </g>
  
  <!-- AI图标 -->
  <g transform="translate(40, 15)">
    <circle cx="0" cy="0" r="10" fill="#FFC107" />
    <text x="0" y="4" font-family="Arial" font-size="10" font-weight="bold" fill="#1A1A2E" text-anchor="middle">AI</text>
  </g>
  
  <!-- 底部文字 -->
  <text x="40" y="75" font-family="Arial" font-size="8" font-weight="bold" fill="#1A1A2E" text-anchor="middle">文本生成</text>
</svg> 